<svg xmlns="http://www.w3.org/2000/svg" width="101" height="51" viewBox="0 0 101 51" fill="none">
  <path d="M29.5203 7.9991H18.3936L18.4729 14.1013L23.3722 14.0553C24.195 14.0428 24.8675 14.7027 24.88 15.5255L25.0638 29.5468C27.0853 27.5002 29.1611 25.416 31.2119 23.3861L31.0281 9.46931C31.0156 8.64649 30.3431 7.99075 29.5203 7.9991Z" fill="white"/>
  <g filter="url(#filter0_d_3157_4461)">
    <path d="M18.6943 22.6509L18.3936 7.99902C17.3744 8.97637 15.3446 11.3571 12.542 14.356L12.5838 22.6802L18.6901 22.6468L18.6943 22.6509Z" fill="white"/>
  </g>
  <path d="M1.56209 40.783L12.6889 40.7246L12.6596 34.7519L7.76033 34.7769C6.93752 34.7769 6.26925 34.117 6.26507 33.2942L6.19407 19.2729C4.15583 21.3028 2.0633 23.3703 0 25.3835L0.0710041 39.3003C0.0751809 40.1231 0.743455 40.7872 1.56627 40.783H1.56209Z" fill="white"/>
  <g filter="url(#filter1_d_3157_4461)">
    <path d="M12.6133 26.1689L12.6885 40.7247C13.7076 39.7474 15.8001 37.4627 18.5985 34.4638L18.5567 26.1396L12.6175 26.1689H12.6133Z" fill="white"/>
  </g>
  <path d="M47 11.999H50.844V19.0857H58.1077V11.999H60.4909C61.3062 11.999 61.9665 12.6594 61.9665 13.4746V30.5845H58.1077V22.2878H50.844V30.5845H48.4756C47.6603 30.5845 47 29.9242 47 29.1089V11.999Z" fill="white"/>
  <path d="M70.9671 26.9804L73.804 16.8428H75.5452C76.5597 16.8428 77.2717 17.8463 76.9397 18.8054L72.9076 30.3595C72 32.964 71.2807 34.5798 70.7531 35.207C70.2219 35.8341 69.1632 36.1477 67.5769 36.1477C67.2559 36.1477 67.0014 36.1477 66.8095 36.1403C66.8095 36.1403 66.8059 36.1403 66.8022 36.1403C66.3226 36.1292 65.9389 35.7308 65.9389 35.2475V33.2186L66.3927 33.2444C66.7468 33.2591 67.0825 33.2481 67.3998 33.2075C67.7207 33.1669 67.9864 33.0673 68.2077 32.916C68.418 32.7722 68.6135 32.4734 68.7943 32.0196C68.975 31.5659 69.0488 31.2892 69.0156 31.1859L63.9727 16.8354H67.9679L70.9671 26.973V26.9804Z" fill="white"/>
  <path d="M79.8213 11.999H81.9388C82.7541 11.999 83.4144 12.6594 83.4144 13.4746V30.5845H81.2969C80.4816 30.5845 79.8213 29.9242 79.8213 29.1089V11.999Z" fill="white"/>
  <path d="M93.0992 31.0644C90.7382 31.0644 88.9748 30.3487 87.8164 28.9137C86.6581 27.4823 86.0752 25.7558 86.0752 23.7379C86.0752 21.72 86.6544 20.0341 87.8164 18.5806C88.9748 17.1271 90.7382 16.4004 93.0992 16.4004C95.4602 16.4004 97.2235 17.1271 98.3819 18.5806C99.5403 20.0341 100.123 21.7532 100.123 23.7379L93.0992 31.0644ZM93.0881 19.4402C92.0367 19.4402 91.2288 19.8128 90.6607 20.558C90.0926 21.3031 89.8085 22.3619 89.8085 23.7416C89.8085 25.1213 90.0926 26.1838 90.6607 26.9326C91.2288 27.6815 92.0367 28.0541 93.0881 28.0541C94.1395 28.0541 94.9474 27.6815 95.5081 26.9326C96.0725 26.1838 96.3529 25.1213 96.3529 23.7416C96.3529 22.3619 96.0725 21.3031 95.5081 20.558C94.9437 19.8128 94.1395 19.4402 93.0881 19.4402Z" fill="white"/>
  <defs>
    <filter id="filter0_d_3157_4461" x="7.54199" y="-0.000976562" width="22.1523" height="30.6812" filterUnits="userSpaceOnUse" color-interpolation-filters="sRGB">
      <feFlood flood-opacity="0" result="BackgroundImageFix"/>
      <feColorMatrix in="SourceAlpha" type="matrix" values="0 0 0 0 0 0 0 0 0 0 0 0 0 0 0 0 0 0 127 0" result="hardAlpha"/>
      <feOffset dx="3"/>
      <feGaussianBlur stdDeviation="4"/>
      <feComposite in2="hardAlpha" operator="out"/>
      <feColorMatrix type="matrix" values="0 0 0 0 0 0 0 0 0 0 0 0 0 0 0 0 0 0 0.25 0"/>
      <feBlend mode="normal" in2="BackgroundImageFix" result="effect1_dropShadow_3157_4461"/>
      <feBlend mode="normal" in="SourceGraphic" in2="effect1_dropShadow_3157_4461" result="shape"/>
    </filter>
    <filter id="filter1_d_3157_4461" x="1.61328" y="20.1396" width="21.9854" height="30.585" filterUnits="userSpaceOnUse" color-interpolation-filters="sRGB">
      <feFlood flood-opacity="0" result="BackgroundImageFix"/>
      <feColorMatrix in="SourceAlpha" type="matrix" values="0 0 0 0 0 0 0 0 0 0 0 0 0 0 0 0 0 0 127 0" result="hardAlpha"/>
      <feOffset dx="-3" dy="2"/>
      <feGaussianBlur stdDeviation="4"/>
      <feComposite in2="hardAlpha" operator="out"/>
      <feColorMatrix type="matrix" values="0 0 0 0 0 0 0 0 0 0 0 0 0 0 0 0 0 0 0.25 0"/>
      <feBlend mode="normal" in2="BackgroundImageFix" result="effect1_dropShadow_3157_4461"/>
      <feBlend mode="normal" in="SourceGraphic" in2="effect1_dropShadow_3157_4461" result="shape"/>
    </filter>
  </defs>
</svg>